<svg width="600" height="200" xmlns="http://www.w3.org/2000/svg">
 <defs>
  <style>.cls-1{fill:none;}.cls-2{fill:#4d4d4d;}.cls-3{clip-path:url(#clip-path);}.cls-4{fill:url(#linear-gradient);}.cls-5{fill:#e1e1e1;}.cls-6{fill:#585858;}.cls-7{fill:#696969;}.cls-8{fill:#5e5e5e;}.cls-9{fill:#6d6d6d;}.cls-10{fill:#636363;}.cls-11{fill:#737373;}.cls-12{fill:#757575;}.cls-13{fill:#646464;}.cls-14{fill:#6c6c6c;}.cls-15{fill:#606060;}.cls-16{fill:#707070;}.cls-17{fill:#767676;}.cls-18{fill:#797979;}.cls-19{fill:#7f7f7f;}.cls-20{fill:#868686;}.cls-21{fill:#8a8a8a;}.cls-22{fill:#7d7d7d;}.cls-23{fill:#919191;}.cls-24{fill:#858585;}.cls-25{fill:#929292;}.cls-26{fill:#898989;}.cls-27{fill:#8f8f8f;}.cls-28{fill:#999;}.cls-29{fill:#979797;}.cls-30{fill:#9f9f9f;}.cls-31{fill:#a6a6a6;}.cls-32{fill:#a0a0a0;}.cls-33{fill:#9b9b9b;}.cls-34{fill:#9d9d9d;}.cls-35{fill:#a3a3a3;}.cls-36{fill:#aaa;}.cls-37{fill:#a9a9a9;}.cls-38{fill:#989898;}.cls-39{fill:#b1b1b1;}.cls-40{fill:#9e9e9e;}.cls-41{fill:#a4a4a4;}.cls-42{fill:#aeaeae;}.cls-43{fill:#ababab;}.cls-44{fill:#b4b4b4;}.cls-45{fill:#a2a2a2;}.cls-46{fill:#bcbcbc;}.cls-47{fill:#b8b8b8;}.cls-48{fill:#b0b0b0;}.cls-49{fill:#b9b9b9;}.cls-50{fill:#bfbfbf;}.cls-51{fill:#b5b5b5;}.cls-52{fill:#bdbdbd;}.cls-53{fill:#b6b6b6;}.cls-54{fill:#c3c3c3;}.cls-55{fill:#c9c9c9;}.cls-56{fill:#bbb;}.cls-57{fill:#c1c1c1;}.cls-58{fill:#c6c6c6;}.cls-59{fill:#cdcdcd;}.cls-60{fill:#ccc;}.cls-61{fill:#c2c2c2;}.cls-62{fill:#c8c8c8;}.cls-63{fill:#c7c7c7;}.cls-64{fill:#cecece;}.cls-65{fill:#d3d3d3;}.cls-66{fill:#d5d5d5;}.cls-67{fill:#d0d0d0;}.cls-68{fill:#d9d9d9;}.cls-69{fill:#d4d4d4;}.cls-70{fill:#d8d8d8;}.cls-71{fill:#e2e2e2;}.cls-72{fill:#e4e4e4;}.cls-73{fill:#dedede;}.cls-74{fill:#c5c5c5;}.cls-75{fill:#d1d1d1;}.cls-76{fill:#cbcbcb;}.cls-77{fill:#d7d7d7;}.cls-78{fill:#ddd;}.cls-79{fill:#e3e3e3;}.cls-80{fill:#00b8e3;}.cls-81{fill:#33c6e9;}.cls-82{fill:#008aaa;}</style>
  <clipPath id="clip-path">
   <path id="svg_1" d="m580.49,328.6l-13.49,0a0.58,0.58 0 0 1 -0.46,-0.23l-1.05,-1.43l-2.88,-3.87l-7.86,-10.58l-4.39,-5.92a0.56,0.56 0 0 0 -0.86,0l-4.6,5.12l-0.52,0.59a0.55,0.55 0 0 0 -0.14,0.37l0,15.35a0.57,0.57 0 0 1 -0.56,0.56l-11.68,0a0.56,0.56 0 0 1 -0.56,-0.56l0,-56a0.56,0.56 0 0 1 0.56,-0.56l11.63,0a0.56,0.56 0 0 1 0.56,0.56l0,21.47a0.56,0.56 0 0 0 1,0.38l6.42,-7l9.55,-10.39l4.48,-4.87a0.56,0.56 0 0 1 0.41,-0.18l14.28,0a0.56,0.56 0 0 1 0.56,0.58a0.63,0.63 0 0 1 -0.14,0.35l-6.43,7.15l-10.7,11.9l-4.46,5a0.55,0.55 0 0 0 0,0.69l5.56,7.77l5.06,7.13l0.62,0.87l3.83,5.36l4,5.62l2.79,3.9a0.57,0.57 0 0 1 -0.53,0.87zm-53.49,-0.79a0.57,0.57 0 0 1 -0.51,0.79l-12.38,0a0.55,0.55 0 0 1 -0.51,-0.34l-0.25,-0.55l0,0l-4.78,-11.11a0.55,0.55 0 0 0 -0.51,-0.34l-23.22,0a0.57,0.57 0 0 0 -0.52,0.34l-0.71,1.65l-4.31,10l0,0a0.56,0.56 0 0 1 -0.5,0.32l-12.37,0a0.56,0.56 0 0 1 -0.51,-0.79l0.86,-2l5.83,-13.49l0,0l0.21,-0.48l0.25,-0.56l0.11,-0.28l1.94,-4.5l0,0l0,0l0,0l15,-34.67a0.57,0.57 0 0 1 0.51,-0.34l11.61,0a0.55,0.55 0 0 1 0.51,0.34l7.79,18l3.85,8.91l4.31,10l8.15,18.87l0.15,0.23zm-23.71,-23.55l-0.82,-1.91l-2.74,-6.4l-2.73,-6.32a0.57,0.57 0 0 0 -1,0l-4.86,11.21l-1.48,3.42a0.56,0.56 0 0 0 0.51,0.78l12.61,0a0.56,0.56 0 0 0 0.48,-0.78l0.03,0zm-36.64,6.44a24.47,24.47 0 0 1 -1.14,2.55a28.69,28.69 0 0 1 -5.52,7.42l0,0a30.51,30.51 0 0 1 -3.13,2.68a29,29 0 0 1 -16.14,5.72c-0.68,0 -1.38,0.07 -2.08,0.07a29.86,29.86 0 0 1 -16.72,-4.73a30.35,30.35 0 0 1 -4.62,-3.74c-0.57,-0.56 -1.12,-1.13 -1.63,-1.72a28.24,28.24 0 0 1 -7,-19.33a32.44,32.44 0 0 1 0.37,-5l0,0l-0.26,-0.38l0.42,-0.63a27.71,27.71 0 0 1 8.14,-15.07a30.43,30.43 0 0 1 4.31,-3.52a28.1,28.1 0 0 1 10.22,-4.28l0,0a32.86,32.86 0 0 1 6.8,-0.67a29.36,29.36 0 0 1 21.35,8.47a28,28 0 0 1 8.53,17.89l0,0c0.1,1 0.14,2.08 0.14,3.16a30.07,30.07 0 0 1 -2.06,11.11l0.02,0zm-11,-11a18.72,18.72 0 0 0 -4.4,-12.46a7.21,7.21 0 0 0 -0.5,-0.59a15.67,15.67 0 0 0 -12.06,-5.39a17.27,17.27 0 0 0 -3.69,0.39a15.75,15.75 0 0 0 -8.37,5a18.58,18.58 0 0 0 -4.9,12.6c0,0.15 0,0.29 0,0.45a18.54,18.54 0 0 0 4.91,13a16.28,16.28 0 0 0 1.48,1.44a15.69,15.69 0 0 0 3.22,2.21a16.71,16.71 0 0 0 14.94,-0.12a16.26,16.26 0 0 0 4,-3c0.17,-0.17 0.34,-0.34 0.5,-0.52a18.55,18.55 0 0 0 2.77,-3.92a19.13,19.13 0 0 0 2.05,-9.1l0.05,0.01zm-47.7,17.53l-23.3,0a0.55,0.55 0 0 1 -0.56,-0.55l0,-44.68a0.55,0.55 0 0 0 -0.32,-0.5a0.49,0.49 0 0 0 -0.24,-0.06l-11.63,0a0.56,0.56 0 0 0 -0.56,0.56l0,56a0.56,0.56 0 0 0 0.56,0.56l36,0a0.56,0.56 0 0 0 0.56,-0.56l0,-10.22a0.56,0.56 0 0 0 -0.56,-0.56l0.05,0.01zm-63.24,-47c-0.92,-0.08 -1.85,-0.11 -2.8,-0.11a29.36,29.36 0 0 0 -21.31,8.51a30.65,30.65 0 0 0 -2.88,3.25l0,0a28.57,28.57 0 0 0 -5.83,18a30.78,30.78 0 0 0 1.86,10.9a26.61,26.61 0 0 0 2.87,5.6l0,0a28.23,28.23 0 0 0 3.79,4.53a28.92,28.92 0 0 0 5.7,4.34l0,0c0.51,0.29 1,0.58 1.57,0.85q0.57,0.29 1.17,0.54l0,0a32.63,32.63 0 0 0 13.27,2.59a29.57,29.57 0 0 0 4.24,-0.3l0,0c0.88,-0.12 1.76,-0.29 2.62,-0.5a29.64,29.64 0 0 0 13.31,-7.35c0.81,-0.74 1.61,-1.55 2.39,-2.4a0.57,0.57 0 0 0 0,-0.78l-7.38,-7.59a0.54,0.54 0 0 0 -0.49,-0.16a0.61,0.61 0 0 0 -0.33,0.2a18.73,18.73 0 0 1 -15,7a16.65,16.65 0 0 1 -5.78,-1a16.21,16.21 0 0 1 -5.91,-3.85a15.61,15.61 0 0 1 -3.74,-5.94a20.28,20.28 0 0 1 -1.09,-6.85q0,-7.43 4.44,-12c0.22,-0.22 0.44,-0.44 0.67,-0.66a17.52,17.52 0 0 1 12.31,-4.7a18.45,18.45 0 0 1 14.64,7a0.55,0.55 0 0 0 0.84,0l7.18,-8.14a0.58,0.58 0 0 0 0,-0.76a30,30 0 0 0 -20.38,-10.21l0.05,-0.01zm-32.26,5.82l2.17,-3.78a0.56,0.56 0 0 0 -0.48,-0.84l-12.59,0a0.57,0.57 0 0 0 -0.48,0.28l-11.36,19.55l0,0l-0.61,0.45l-0.46,0.35a0.58,0.58 0 0 1 -0.24,-0.22l-0.19,-0.32l-0.29,-0.48l-11.22,-19.33a0.57,0.57 0 0 0 -0.48,-0.28l-12.54,0a0.56,0.56 0 0 0 -0.48,0.84l5.44,9.5l9.83,17.23l4,6.93a0.57,0.57 0 0 1 0.08,0.28l0,21.79a0.56,0.56 0 0 0 0.56,0.56l11.59,0a0.56,0.56 0 0 0 0.56,-0.56l0,-21.83a0.57,0.57 0 0 1 0.08,-0.28l2.8,-4.9l10.64,-18.61l2.18,-3.79l1.44,-2.53l0,0l0.05,-0.01zm-53.69,41.26l-28.28,0a0.56,0.56 0 0 1 -0.56,-0.56l0,-10.75a0.57,0.57 0 0 1 0.56,-0.56l24.52,0a0.56,0.56 0 0 0 0.56,-0.56l0,-9.75a0.56,0.56 0 0 0 -0.56,-0.56l-24.52,0a0.56,0.56 0 0 1 -0.56,-0.56l0,-10.65a0.56,0.56 0 0 1 0.56,-0.56l27.34,0a0.56,0.56 0 0 0 0.56,-0.56l0,-10.24a0.56,0.56 0 0 0 -0.56,-0.56l-40.1,0a0.56,0.56 0 0 0 -0.56,0.56l0,56a0.56,0.56 0 0 0 0.56,0.56l41,0a0.56,0.56 0 0 0 0.56,-0.56l0,-10.13a0.56,0.56 0 0 0 -0.56,-0.56l0.04,0zm-48.17,9.69q-2.18,-3 -5.3,-7.43q-2.44,-3.41 -5.43,-7.62l-0.2,-0.29q-7.44,-10.46 -10.43,-14.62a0.56,0.56 0 0 1 0,-0.69l5.09,-5.65l0,0l4.19,-4.66l4,-4.48l8.28,-9.2a0.56,0.56 0 0 0 -0.42,-0.93l-14.19,0a0.57,0.57 0 0 0 -0.42,0.18l-8.85,9.61l-11.6,12.62a0.56,0.56 0 0 1 -1,-0.38l0,-21.46a0.55,0.55 0 0 0 -0.56,-0.55l-11.6,0a0.56,0.56 0 0 0 -0.56,0.56l0,56a0.56,0.56 0 0 0 0.56,0.56l11.63,0a0.56,0.56 0 0 0 0.56,-0.56l0,-15.4a0.55,0.55 0 0 1 0.14,-0.37l2.42,-2.71l2.7,-3a0.56,0.56 0 0 1 0.86,0l8.07,10.85l5.8,7.8l2.33,3.14a0.55,0.55 0 0 0 0.45,0.23l13.51,0a0.57,0.57 0 0 0 0.46,-0.89l-0.49,-0.66zm-55.66,-55.65l-119,0a1.08,1.08 0 0 0 -0.91,0.51s0,0 0,0l-0.59,1l-7.28,12.62l-8,13.94a1,1 0 0 0 0,1.05l1.75,3l14.1,24.64a1.06,1.06 0 0 0 0.92,0.53l119,0a1.18,1.18 0 0 0 1.17,-1.18l0,-54.9a1.19,1.19 0 0 0 -1.16,-1.19l0,-0.02z" class="cls-1"/>
  </clipPath>
 </defs>
 <title>keycloak_deliverables</title>
 <g>
  <title>background</title>
  <rect fill="none" id="canvas_background" height="202" width="602" y="-1" x="-1"/>
 </g>
 <g>
  <title>Layer 1</title>
  <path id="svg_2" d="m135.1,71.36a1,1 0 0 1 -0.91,-0.52l-15.91,-27.58a1.08,1.08 0 0 0 -0.93,-0.52l-64.9,0a1,1 0 0 0 -0.91,0.52l-16.54,28.62a0,0 0 0 0 0,0l-15.92,27.59a1.07,1.07 0 0 0 0,1.05l15.92,27.58l16.53,28.65a1,1 0 0 0 0.91,0.52l64.91,0a1.08,1.08 0 0 0 0.93,-0.52l15.92,-27.58a1,1 0 0 1 0.91,-0.52l19.81,0a1.19,1.19 0 0 0 1.19,-1.19l0,-54.9a1.19,1.19 0 0 0 -1.19,-1.19l-19.82,0l0,-0.01z" class="cls-2"/>
  <g id="svg_3" class="cls-3">
   <rect id="svg_4" height="76.56" width="566.81" y="62.56" x="17.66" class="cls-4"/>
  </g>
  <path id="svg_5" d="m38.62,97.11l-17.78,6.45l-1.75,-3a1,1 0 0 1 0,-1.05l8,-13.94l11.53,11.54z" class="cls-5"/>
  <path id="svg_6" d="m580.49,128.6l-7.34,0l-6.7,-4.2l11.71,-0.59l2.79,3.9a0.57,0.57 0 0 1 -0.46,0.89z" class="cls-6"/>
  <path id="svg_7" d="m573.15,128.6l-6.15,0a0.58,0.58 0 0 1 -0.46,-0.23l-1.05,-1.43l1,-2.55l6.66,4.21z" class="cls-6"/>
  <path id="svg_8" d="m580.89,72a0.63,0.63 0 0 1 -0.14,0.35l-6.43,7.15l-0.4,-4l6.97,-3.5z" class="cls-7"/>
  <path id="svg_9" d="m578.16,123.81l-11.71,0.59l7.72,-6.21l3.99,5.62z" class="cls-8"/>
  <path id="svg_10" d="m580.89,72l-7,3.49l1.19,-4.07l5.23,0a0.56,0.56 0 0 1 0.58,0.58z" class="cls-9"/>
  <path id="svg_11" d="m574.17,118.19l-7.72,6.21l3.89,-11.57l3.83,5.36z" class="cls-10"/>
  <polygon id="svg_12" points="575.0999755859375,71.42999267578125 573.9099731445312,75.5 567.1400146484375,71.42999267578125 575.0999755859375,71.42999267578125 " class="cls-11"/>
  <path id="svg_13" d="m544.21,72l0,5.79l-12.75,1l0,-6.79a0.56,0.56 0 0 1 0.56,-0.56l11.63,0a0.56,0.56 0 0 1 0.56,0.56z" class="cls-12"/>
  <path id="svg_14" d="m573.91,75.5l-12.75,1l4.48,-4.87a0.56,0.56 0 0 1 0.41,-0.18l1.09,0l6.77,4.05z" class="cls-12"/>
  <path id="svg_15" d="m570.34,112.83l-3.89,11.57l-3.86,-1.32l-7.86,-10.58l9.93,-7.67l5.06,7.13l0.62,0.87z" class="cls-13"/>
  <polygon id="svg_16" points="544.219970703125,77.77999877929688 544.219970703125,84.05999755859375 531.4600219726562,79.23001098632812 531.4600219726562,78.76998901367188 544.219970703125,77.77999877929688 " class="cls-9"/>
  <polygon id="svg_17" points="574.3099975585938,79.510009765625 563.6099853515625,91.41000366210938 551.6099853515625,86.8599853515625 561.1599731445312,76.48001098632812 573.9099731445312,75.5 574.3099975585938,79.510009765625 " class="cls-9"/>
  <path id="svg_18" d="m564.67,104.83l-9.93,7.67l-4.39,-5.92a0.56,0.56 0 0 0 -0.86,0l-4.6,5.12l-13.42,-30.46l0,-2l12.75,4.83l0,9.4a0.56,0.56 0 0 0 1,0.38l6.42,-7l12,4.54l-4.46,5a0.55,0.55 0 0 0 0,0.69l5.49,7.75z" class="cls-14"/>
  <polygon id="svg_19" points="566.4500122070312,124.3900146484375 565.47998046875,126.94000244140625 562.5999755859375,123.07000732421875 566.4500122070312,124.3900146484375 " class="cls-15"/>
  <path id="svg_20" d="m544.88,111.65l-0.52,0.59a0.55,0.55 0 0 0 -0.14,0.37l0,2.39l-12.75,-10.82l0,-23l13.41,30.47z" class="cls-16"/>
  <path id="svg_21" d="m527,127.81a0.57,0.57 0 0 1 -0.51,0.79l-1.89,0l2.26,-1l0.14,0.21z" class="cls-10"/>
  <path id="svg_22" d="m544.21,119.55l0,8.45a0.57,0.57 0 0 1 -0.56,0.56l-11.65,0a0.56,0.56 0 0 1 -0.56,-0.56l0,-2.6l12.77,-5.85z" class="cls-10"/>
  <path id="svg_23" d="m526.86,127.55l-2.26,1l-10.49,0a0.55,0.55 0 0 1 -0.51,-0.34l-0.25,-0.55l0,0l5.36,-19l8.15,18.89z" class="cls-9"/>
  <polygon id="svg_24" points="544.219970703125,115.02999877929688 544.219970703125,119.54998779296875 531.4600219726562,125.42999267578125 531.4600219726562,104.20999145507812 544.219970703125,115.02999877929688 " class="cls-9"/>
  <path id="svg_25" d="m518.71,108.68l-5.36,19l-4.78,-11.11a0.55,0.55 0 0 0 -0.51,-0.34l-23.23,0a0.57,0.57 0 0 0 -0.52,0.34l-0.71,1.65l-10.8,-6.39l0.25,-0.56l20.55,-6.27l9.15,0a0.56,0.56 0 0 0 0.51,-0.78l-0.82,-1.91l12,-3.64l4.27,10.01z" class="cls-17"/>
  <path id="svg_26" d="m493.6,105l-20.6,6.29l0.11,-0.28l17.94,-10.18l-1.48,3.42a0.56,0.56 0 0 0 0.51,0.78l3.46,0l0.06,-0.03z" class="cls-18"/>
  <polygon id="svg_27" points="514.4000244140625,98.70999145507812 502.44000244140625,102.35000610351562 499.7099914550781,95.95001220703125 510.54998779296875,89.79998779296875 514.4000244140625,98.70999145507812 " class="cls-18"/>
  <path id="svg_28" d="m483.6,118.24l-4.31,10l0,0l-6.69,-15.94l0,0l0.21,-0.48l10.79,6.42z" class="cls-12"/>
  <path id="svg_29" d="m510.55,89.8l-10.84,6.15l-2.71,-6.32a0.57,0.57 0 0 0 -1,0l-4.86,11.21l-17.98,10.16l1.94,-4.5l0,0l0,0l0,0l19.84,-35l7.26,0a0.55,0.55 0 0 1 0.51,0.34l7.84,17.96z" class="cls-19"/>
  <path id="svg_30" d="m466.21,87.57a28.28,28.28 0 0 1 2.25,8.91l-2.25,-8.91z" class="cls-20"/>
  <path id="svg_31" d="m495,71.43l-19.84,35l15,-34.67a0.57,0.57 0 0 1 0.51,-0.34l4.33,0l0,0.01z" class="cls-20"/>
  <path id="svg_32" d="m468.6,99.65a30.07,30.07 0 0 1 -2,11.05l-13.16,-1.93a19.13,19.13 0 0 0 2.14,-9.09a18.72,18.72 0 0 0 -4.4,-12.46l5.14,-11.66a29.67,29.67 0 0 1 3.59,3a28.15,28.15 0 0 1 6.27,9l2.25,8.91l0,0c0.12,1.05 0.17,2.1 0.17,3.18z" class="cls-21"/>
  <path id="svg_33" d="m454,116.16l11.5,-2.91a28.69,28.69 0 0 1 -5.52,7.42l-5.98,-4.51z" class="cls-22"/>
  <path id="svg_34" d="m479.28,128.27a0.56,0.56 0 0 1 -0.5,0.32l-8.34,0l-3.67,-2.78l5.83,-13.49l6.68,15.95z" class="cls-22"/>
  <path id="svg_35" d="m454,116.16l6,4.51l0,0a30.51,30.51 0 0 1 -3.13,2.68l-2.87,-7.19z" class="cls-18"/>
  <path id="svg_36" d="m470.44,128.6l-4,0a0.56,0.56 0 0 1 -0.51,-0.79l0.86,-2l3.65,2.79z" class="cls-18"/>
  <path id="svg_37" d="m466.62,110.7a24.47,24.47 0 0 1 -1.14,2.55l-11.48,2.91l-3.79,-2.95c0.17,-0.17 0.34,-0.34 0.5,-0.52a18.55,18.55 0 0 0 2.77,-3.92l13.14,1.93z" class="cls-20"/>
  <path id="svg_38" d="m456.81,123.38a29,29 0 0 1 -16.14,5.72l13.33,-12.94l2.81,7.22z" class="cls-22"/>
  <path id="svg_39" d="m456.34,75.56l-5.14,11.66a7.21,7.21 0 0 0 -0.5,-0.59a15.67,15.67 0 0 0 -12.06,-5.39a17.27,17.27 0 0 0 -3.69,0.39l-3.16,-10.84a32.86,32.86 0 0 1 6.8,-0.67a29.62,29.62 0 0 1 17.75,5.44z" class="cls-23"/>
  <path id="svg_40" d="m454,116.16l-13.33,12.94c-0.68,0 -1.38,0.07 -2.08,0.07a29.86,29.86 0 0 1 -16.72,-4.73l1.49,-8l7.92,-0.07a16.71,16.71 0 0 0 14.94,-0.12l7.78,-0.09z" class="cls-24"/>
  <path id="svg_41" d="m434.95,81.64a15.75,15.75 0 0 0 -8.37,5a18.58,18.58 0 0 0 -4.9,12.6l-12.68,-4.84l-0.29,-0.11l0.42,-0.63l12.44,-18.59a28.1,28.1 0 0 1 10.22,-4.28l0,0l3.16,10.85z" class="cls-25"/>
  <path id="svg_42" d="m428.06,114.13a15.69,15.69 0 0 0 3.22,2.21l-7.92,0.07l4.7,-2.28z" class="cls-26"/>
  <path id="svg_43" d="m454,116.16l-7.76,0.07a16.26,16.26 0 0 0 4,-3l3.76,2.93z" class="cls-26"/>
  <path id="svg_44" d="m428.06,114.13l-4.69,2.28l-14.37,-21.73l0,0l-0.26,-0.38l0.26,0.1l12.68,4.84c0,0.15 0,0.29 0,0.45a18.54,18.54 0 0 0 4.91,13a16.28,16.28 0 0 0 1.47,1.44z" class="cls-27"/>
  <path id="svg_45" d="m421.56,75.07l-12.44,18.59a27.71,27.71 0 0 1 8.14,-15.07a30.43,30.43 0 0 1 4.3,-3.52z" class="cls-28"/>
  <path id="svg_46" d="m386.64,128.6l21.82,-7.24l0,6.64a0.56,0.56 0 0 1 -0.56,0.56l-21.26,0l0,0.04z" class="cls-26"/>
  <path id="svg_47" d="m423.36,116.41l-1.49,8a30.35,30.35 0 0 1 -4.62,-3.74c-0.57,-0.56 -1.12,-1.13 -1.63,-1.72l7.74,-2.54z" class="cls-26"/>
  <path id="svg_48" d="m408.46,117.78l0,3.57l-21.82,7.24l-11.82,0l11.23,-11.38l21.85,0a0.56,0.56 0 0 1 0.56,0.57z" class="cls-23"/>
  <path id="svg_49" d="m423.36,116.41l-7.73,2.59a28.24,28.24 0 0 1 -7,-19.33a32.44,32.44 0 0 1 0.37,-5l14.36,21.74z" class="cls-23"/>
  <path id="svg_50" d="m386.05,117.22l-11.23,11.38l-2.92,0a0.56,0.56 0 0 1 -0.56,-0.56l0,0l12.75,-36l0,24.72a0.55,0.55 0 0 0 0.56,0.55l1.4,0l0,-0.09z" class="cls-29"/>
  <path id="svg_51" d="m384.09,72l0,3.18l-0.32,-3.69a0.55,0.55 0 0 1 0.32,0.51z" class="cls-30"/>
  <path id="svg_52" d="m365.07,80.45a0.58,0.58 0 0 1 0,0.76l-7.18,8.14a0.55,0.55 0 0 1 -0.84,0a19,19 0 0 0 -9.61,-6.37l-2.79,-12.73a30,30 0 0 1 20.42,10.2z" class="cls-31"/>
  <path id="svg_53" d="m377.09,71.43l-5.75,5.84l0,-5.27a0.56,0.56 0 0 1 0.56,-0.56l5.19,0l0,-0.01z" class="cls-31"/>
  <path id="svg_54" d="m384.09,75.17l0,13.77l-12.75,3.53l0,-15.2l5.75,-5.84l6.44,0a0.49,0.49 0 0 1 0.24,0.06l0.32,3.68z" class="cls-32"/>
  <path id="svg_55" d="m364.7,117.9a0.57,0.57 0 0 1 0,0.78c-0.78,0.86 -1.58,1.66 -2.39,2.4l-5.5,-10.94a0.54,0.54 0 0 1 0.49,0.16l7.4,7.6z" class="cls-33"/>
  <polygon id="svg_56" points="384.0899963378906,88.94000244140625 384.0899963378906,91.95001220703125 371.3399963378906,127.989990234375 371.3399963378906,92.47000122070312 384.0899963378906,88.94000244140625 " class="cls-33"/>
  <path id="svg_57" d="m362.34,121.09a29.64,29.64 0 0 1 -13.34,7.34l0.75,-12.85a19.5,19.5 0 0 0 6.72,-5.24a0.61,0.61 0 0 1 0.33,-0.2l5.54,10.95z" class="cls-28"/>
  <path id="svg_58" d="m349.78,115.59l-0.78,12.84c-0.86,0.21 -1.74,0.38 -2.62,0.5l0,0l-17.51,-2.29l0,0q-0.6,-0.26 -1.17,-0.54l8.08,-9.77a16.65,16.65 0 0 0 5.78,1a19.47,19.47 0 0 0 8.22,-1.74z" class="cls-34"/>
  <path id="svg_59" d="m335.75,116.33l-8.08,9.77c-0.53,-0.27 -1.05,-0.55 -1.57,-0.85l0,0l-9.49,-8.88l0,0a26.61,26.61 0 0 1 -2.87,-5.6l12.39,-4.21a15.61,15.61 0 0 0 3.74,5.94a16.21,16.21 0 0 0 5.88,3.83z" class="cls-35"/>
  <polygon id="svg_60" points="308.3299865722656,77.29000854492188 312.3999938964844,76.05999755859375 310.9599914550781,78.58999633789062 308.3299865722656,77.29000854492188 " class="cls-36"/>
  <path id="svg_61" d="m347.46,83a18.89,18.89 0 0 0 -5,-0.66a17.52,17.52 0 0 0 -12.31,4.7c-0.24,0.22 -0.46,0.44 -0.67,0.66l-11.78,-5.78l0,0a30.65,30.65 0 0 1 2.88,-3.25a29.36,29.36 0 0 1 21.31,-8.51c1,0 1.88,0 2.8,0.11l2.77,12.73z" class="cls-36"/>
  <polygon id="svg_62" points="308.3299865722656,77.29000854492188 310.9599914550781,78.58999633789062 308.7799987792969,82.3800048828125 308.3299865722656,77.29000854492188 " class="cls-37"/>
  <path id="svg_63" d="m325,99.68a20.28,20.28 0 0 0 1.09,6.85l-12.39,4.21a30.78,30.78 0 0 1 -1.86,-10.9a28.57,28.57 0 0 1 5.83,-18l11.78,5.78q-4.45,4.63 -4.45,12.06z" class="cls-37"/>
  <path id="svg_64" d="m328.86,126.64l0,0z" class="cls-38"/>
  <path id="svg_65" d="m346.38,128.94a29.57,29.57 0 0 1 -4.24,0.3a32.63,32.63 0 0 1 -13.27,-2.59l17.51,2.29z" class="cls-38"/>
  <path id="svg_66" d="m314.57,72.27l-2.17,3.73l-4.08,1.25l-2.05,-5.86l7.81,0a0.56,0.56 0 0 1 0.49,0.88z" class="cls-39"/>
  <polygon id="svg_67" points="295.260009765625,121.73001098632812 295.260009765625,123.23001098632812 292.3699951171875,121.30999755859375 295.260009765625,121.73001098632812 " class="cls-40"/>
  <path id="svg_68" d="m295.26,123.23l0,4.77a0.56,0.56 0 0 1 -0.56,0.56l-2.7,0l0.39,-7.29l2.87,1.96z" class="cls-34"/>
  <polygon id="svg_69" points="292.3699951171875,121.30999755859375 295.260009765625,119.82000732421875 295.260009765625,121.73001098632812 292.3699951171875,121.30999755859375 " class="cls-41"/>
  <path id="svg_70" d="m326.09,125.25a28.92,28.92 0 0 1 -5.7,-4.34a28.23,28.23 0 0 1 -3.79,-4.53l9.49,8.87z" class="cls-41"/>
  <polygon id="svg_71" points="308.7799987792969,82.3800048828125 298.1400146484375,100.989990234375 287.739990234375,92.739990234375 288.6300048828125,92.07000732421875 289.0899963378906,91.72000122070312 289.70001220703125,91.26998901367188 289.70001220703125,91.260009765625 289.7099914550781,91.25 308.3299865722656,77.29000854492188 308.7799987792969,82.3800048828125 " class="cls-42"/>
  <path id="svg_72" d="m298.14,101l-2.8,4.9a0.57,0.57 0 0 0 -0.08,0.28l0,13.66l-2.89,1.48l-4.63,-28.57l10.4,8.25z" class="cls-43"/>
  <path id="svg_73" d="m288.4,91.85a0.58,0.58 0 0 0 0.24,0.22l-0.89,0.67l0.47,-1.21l0.18,0.32z" class="cls-44"/>
  <path id="svg_74" d="m308.33,77.29l-18.62,14l11.36,-19.55a0.57,0.57 0 0 1 0.48,-0.28l4.72,0l2.06,5.83z" class="cls-44"/>
  <polygon id="svg_75" points="292.3699951171875,121.30999755859375 291.9800109863281,128.60000610351562 283.1499938964844,128.60000610351562 292.3699951171875,121.30999755859375 " class="cls-45"/>
  <path id="svg_76" d="m258.38,72l0,3.9l-7.76,-4.46l7.2,0a0.56,0.56 0 0 1 0.56,0.56z" class="cls-46"/>
  <path id="svg_77" d="m287.92,91l-0.18,1.69l-19.11,-11l-5.44,-9.5a0.56,0.56 0 0 1 0.48,-0.84l12.54,0a0.57,0.57 0 0 1 0.48,0.28l11.23,19.37z" class="cls-46"/>
  <polygon id="svg_78" points="288.2099914550781,91.52999877929688 287.739990234375,92.739990234375 287.9200134277344,91.04998779296875 288.2099914550781,91.52999877929688 " class="cls-47"/>
  <path id="svg_79" d="m292.37,121.31l-9.22,7.29l-0.09,0a0.56,0.56 0 0 1 -0.56,-0.56l0,-4.34l9.87,-2.39z" class="cls-37"/>
  <path id="svg_80" d="m282.51,116.14l0,-10a0.57,0.57 0 0 0 -0.08,-0.28l-4,-6.93l9.28,-6.23l4.63,28.57l-9.83,-5.13z" class="cls-48"/>
  <path id="svg_81" d="m256.1,128.6l3.17,-6.88l0,6.28a0.56,0.56 0 0 1 -0.56,0.56l-2.61,0l0,0.04z" class="cls-42"/>
  <polygon id="svg_82" points="292.3699951171875,121.30999755859375 282.5,123.70001220703125 282.5,116.1400146484375 292.3699951171875,121.30999755859375 " class="cls-42"/>
  <path id="svg_83" d="m258.38,75.89l0,6.35a0.56,0.56 0 0 1 -0.56,0.56l-5.39,0l-6.2,-11.37l4.38,0l7.77,4.46z" class="cls-49"/>
  <polygon id="svg_84" points="287.739990234375,92.739990234375 278.4700012207031,98.95999145507812 268.6300048828125,81.76998901367188 287.739990234375,92.739990234375 " class="cls-49"/>
  <polygon id="svg_85" points="252.44000244140625,82.79998779296875 246.77000427246094,82.79998779296875 238.32000732421875,71.8900146484375 238.99000549316406,71.42999267578125 246.24000549316406,71.42999267578125 252.44000244140625,82.79998779296875 " class="cls-50"/>
  <path id="svg_86" d="m259.28,117.87l0,3.85l-3.17,6.88l-4.35,0l-33.24,-16l11.41,-1.24l0,5.43a0.56,0.56 0 0 0 0.56,0.56l28.24,0a0.56,0.56 0 0 1 0.55,0.52z" class="cls-51"/>
  <polygon id="svg_87" points="246.77000427246094,82.79998779296875 233.00999450683594,82.79998779296875 238.32000732421875,71.8900146484375 246.77000427246094,82.79998779296875 " class="cls-52"/>
  <path id="svg_88" d="m255.52,95.13l0,9.75a0.56,0.56 0 0 1 -0.56,0.56l-24.48,0a0.57,0.57 0 0 0 -0.56,0.56l0,5.31l-11.41,1.24l11.41,-23.42l0,4.87a0.56,0.56 0 0 0 0.56,0.56l24.52,0a0.56,0.56 0 0 1 0.52,0.57z" class="cls-52"/>
  <polygon id="svg_89" points="251.75,128.60000610351562 223.5500030517578,128.60000610351562 218.50999450683594,112.54998779296875 251.75,128.60000610351562 " class="cls-53"/>
  <path id="svg_90" d="m238.32,71.9l-5.32,10.9l-2.53,0a0.56,0.56 0 0 0 -0.56,0.56l0,5.78l-11.41,23.42l-1.34,-2.2l0,-28.59l21.16,-9.87z" class="cls-54"/>
  <path id="svg_91" d="m210.87,72.36l-8.28,9.2l-1.53,-10.13l9.39,0a0.56,0.56 0 0 1 0.42,0.93z" class="cls-55"/>
  <path id="svg_92" d="m238.32,71.9l-21.16,9.87l0,-9.77a0.56,0.56 0 0 1 0.56,-0.56l17.6,0l3,0.46z" class="cls-55"/>
  <path id="svg_93" d="m205.29,119.58q3.12,4.39 5.3,7.43l-12.93,-3.38l7.63,-4.05z" class="cls-56"/>
  <path id="svg_94" d="m223.55,128.6l-5.83,0a0.56,0.56 0 0 1 -0.56,-0.56l0,-14.77l1.34,-0.71l5.05,16.04z" class="cls-56"/>
  <path id="svg_95" d="m210.63,128.6l-11.47,0l-1.49,-5l12.92,3.4l0.49,0.69a0.57,0.57 0 0 1 -0.45,0.91z" class="cls-53"/>
  <path id="svg_96" d="m199.86,112q3,4.22 5.43,7.62l-7.62,4l2,-12l0.19,0.38z" class="cls-57"/>
  <polygon id="svg_97" points="218.50999450683594,112.54998779296875 217.1699981689453,113.26998901367188 217.1699981689453,110.3599853515625 218.50999450683594,112.54998779296875 " class="cls-57"/>
  <path id="svg_98" d="m199.66,111.67l-2,12l-9.12,-6.2l-8.07,-10.85a0.56,0.56 0 0 0 -0.86,0l-2.7,3l-14.5,-9.85l32,-9l-5.09,5.65a0.56,0.56 0 0 0 0,0.69q2.89,4.09 10.34,14.56z" class="cls-58"/>
  <path id="svg_99" d="m199.16,128.6l-2,0a0.55,0.55 0 0 1 -0.45,-0.23l-2.33,-3.14l3.33,-1.61l1.45,4.98z" class="cls-47"/>
  <polygon id="svg_100" points="168.07000732421875,73.44000244140625 174.33999633789062,71.98001098632812 174.33999633789062,76.02999877929688 168.07000732421875,73.44000244140625 " class="cls-59"/>
  <path id="svg_101" d="m202.6,81.56l-4,4.48l-11.65,-4.82l8.85,-9.61a0.57,0.57 0 0 1 0.42,-0.18l4.89,0l1.49,10.13z" class="cls-59"/>
  <path id="svg_102" d="m198.57,86l-4.19,4.66l0,0l-32,9l5.66,-26.25l6.27,2.59l0,17.43a0.56,0.56 0 0 0 1,0.38l11.61,-12.62l11.65,4.81z" class="cls-60"/>
  <path id="svg_103" d="m162.4,99.68l14.5,9.85l-2.42,2.71a0.55,0.55 0 0 0 -0.14,0.37l0,15.39a0.56,0.56 0 0 1 -0.56,0.56l-0.16,0l-11.22,-28.88z" class="cls-61"/>
  <polygon id="svg_104" points="197.66000366210938,123.6300048828125 194.33999633789062,125.23001098632812 188.5399932861328,117.42999267578125 197.66000366210938,123.6300048828125 " class="cls-61"/>
  <polygon id="svg_105" points="144.38999938964844,102.260009765625 156.11000061035156,100.58999633789062 156.11000061035156,114.17999267578125 144.38999938964844,102.260009765625 " class="cls-62"/>
  <polygon id="svg_106" points="173.6199951171875,128.60000610351562 170.3000030517578,128.60000610351562 161.58999633789062,119.739990234375 161.58999633789062,99.79998779296875 162.39999389648438,99.69000244140625 173.6199951171875,128.60000610351562 " class="cls-62"/>
  <path id="svg_107" d="m144.39,102.26l11.72,11.92l0,13.28a1.18,1.18 0 0 1 -1.17,1.18l-13.63,0l3.08,-26.38z" class="cls-61"/>
  <path id="svg_108" d="m170.3,128.6l-8.15,0a0.56,0.56 0 0 1 -0.56,-0.56l0,-8.3l8.71,8.86z" class="cls-61"/>
  <polygon id="svg_109" points="144.38999938964844,102.260009765625 141.30999755859375,128.6300048828125 124.91000366210938,128.6300048828125 119.94000244140625,116.67001342773438 144.38999938964844,102.260009765625 " class="cls-63"/>
  <polygon id="svg_110" points="144.38999938964844,102.260009765625 156.11000061035156,88 156.11000061035156,100.58999633789062 144.38999938964844,102.260009765625 " class="cls-64"/>
  <polygon id="svg_111" points="168.07000732421875,73.44000244140625 162.39999389648438,99.69000244140625 161.58999633789062,99.79998779296875 161.58999633789062,81.32000732421875 168.07000732421875,73.44000244140625 " class="cls-64"/>
  <path id="svg_112" d="m156.11,72.55l0,15.45l-11.72,14.27l-8.84,-30.9l19.37,0a1.19,1.19 0 0 1 1.19,1.18z" class="cls-65"/>
  <polygon id="svg_113" points="168.07000732421875,73.44000244140625 161.58999633789062,81.32000732421875 161.58999633789062,72.05999755859375 168.07000732421875,73.44000244140625 " class="cls-65"/>
  <polygon id="svg_114" points="124.91000366210938,128.6300048828125 116.26000213623047,128.6300048828125 114.0199966430664,125.42001342773438 119.94000244140625,116.67001342773438 124.91000366210938,128.6300048828125 " class="cls-58"/>
  <polygon id="svg_115" points="144.38999938964844,102.260009765625 111.95999908447266,88.54998779296875 129.02000427246094,71.3599853515625 135.55999755859375,71.3599853515625 144.38999938964844,102.260009765625 " class="cls-66"/>
  <path id="svg_116" d="m112,88.55l8,28.12l24.45,-14.41l-32.45,-13.71z" class="cls-67"/>
  <polygon id="svg_117" points="116.26000213623047,128.6300048828125 113.91999816894531,128.6300048828125 114.0199966430664,125.42001342773438 116.26000213623047,128.6300048828125 " class="cls-50"/>
  <polygon id="svg_118" points="129.02000427246094,71.3599853515625 111.95999908447266,88.54998779296875 108.87999725341797,73.17999267578125 115.45999908447266,71.3599853515625 129.02000427246094,71.3599853515625 " class="cls-68"/>
  <path id="svg_119" d="m112,88.55l-39.37,9.08l41.37,27.79l-2,-36.87z" class="cls-69"/>
  <path id="svg_120" d="m112,88.55l2,36.87l5.92,-8.75l-7.92,-28.12z" class="cls-67"/>
  <path id="svg_121" d="m108.88,73.18l-36.29,24.45l39.41,-9.08l-3.12,-15.37z" class="cls-68"/>
  <polygon id="svg_122" points="72.58999633789062,97.6300048828125 55.52000045776367,128.6300048828125 45.79999923706055,128.6300048828125 38.619998931884766,97.1099853515625 72.58999633789062,97.6300048828125 " class="cls-70"/>
  <path id="svg_123" d="m55.09,71.36l-16.47,25.75l-4.2,-24.2l0.59,-1s0,0 0,0a1.08,1.08 0 0 1 0.91,-0.51l19.17,0l0,-0.04z" class="cls-71"/>
  <path id="svg_124" d="m45.8,128.63l-9.87,0a1.06,1.06 0 0 1 -0.93,-0.53l-14.17,-24.54l17.78,-6.45l7.19,31.52z" class="cls-70"/>
  <polygon id="svg_125" points="38.619998931884766,97.1099853515625 27.1299991607666,85.52999877929688 34.40999984741211,72.91000366210938 38.619998931884766,97.1099853515625 " class="cls-72"/>
  <polygon id="svg_126" points="90.56999969482422,71.3599853515625 79.22000122070312,71.3599853515625 61.83000183105469,71.3599853515625 72.58999633789062,97.6300048828125 108.87999725341797,73.17999267578125 97.94000244140625,71.3599853515625 90.56999969482422,71.3599853515625 " class="cls-73"/>
  <polygon id="svg_127" points="57.34000015258789,71.3599853515625 55.09000015258789,71.3599853515625 38.619998931884766,97.1099853515625 72.58999633789062,97.6300048828125 61.83000183105469,71.3599853515625 57.34000015258789,71.3599853515625 " class="cls-73"/>
  <polygon id="svg_128" points="106.12000274658203,128.6300048828125 112.44999694824219,128.6300048828125 113.91999816894531,128.6300048828125 114.0199966430664,125.42001342773438 106.12000274658203,128.6300048828125 " class="cls-74"/>
  <polygon id="svg_129" points="114.0199966430664,125.42001342773438 72.58999633789062,97.6300048828125 80.05000305175781,128.6300048828125 90.56999969482422,128.6300048828125 106.12000274658203,128.6300048828125 114.0199966430664,125.42001342773438 " class="cls-67"/>
  <polygon id="svg_130" points="55.52000045776367,128.6300048828125 57.34000015258789,128.6300048828125 79.22000122070312,128.6300048828125 80.05000305175781,128.6300048828125 72.58999633789062,97.6300048828125 55.52000045776367,128.6300048828125 " class="cls-75"/>
  <polygon id="svg_131" points="238.99000549316406,71.42999267578125 238.32000732421875,71.8900146484375 238,71.42999267578125 238.99000549316406,71.42999267578125 " class="cls-62"/>
  <polygon id="svg_132" points="238.32000732421875,71.8900146484375 235.3300018310547,71.42999267578125 238,71.42999267578125 238.32000732421875,71.8900146484375 " class="cls-76"/>
  <path id="svg_133" d="m174.34,72l-6.27,1.45l1.72,-2l4,0a0.55,0.55 0 0 1 0.55,0.55z" class="cls-75"/>
  <polygon id="svg_134" points="169.7899932861328,71.42999267578125 168.07000732421875,73.44000244140625 167.72000122070312,71.42999267578125 169.7899932861328,71.42999267578125 " class="cls-77"/>
  <path id="svg_135" d="m168.07,73.44l-6.48,-1.38l0,-0.06a0.56,0.56 0 0 1 0.56,-0.56l5.57,0l0.35,2z" class="cls-68"/>
  <polygon id="svg_136" points="108.98999786376953,71.3599853515625 108.87999725341797,73.17999267578125 115.45999908447266,71.3599853515625 112.44999694824219,71.3599853515625 108.98999786376953,71.3599853515625 " class="cls-78"/>
  <polygon id="svg_137" points="97.94000244140625,71.3599853515625 108.87999725341797,73.17999267578125 107.87000274658203,71.3599853515625 97.94000244140625,71.3599853515625 " class="cls-79"/>
  <polygon id="svg_138" points="107.87000274658203,71.3599853515625 108.87999725341797,73.17999267578125 108.98999786376953,71.3599853515625 107.87000274658203,71.3599853515625 " class="cls-71"/>
  <path id="svg_139" d="m79.11,71.86l-16,27.72a0.93,0.93 0 0 0 -0.11,0.42l-11.17,0l22,-38.05a0.86,0.86 0 0 1 0.33,0.32l0,0l5,8.65a1,1 0 0 1 -0.05,0.94z" class="cls-80"/>
  <path id="svg_140" d="m79.09,129.16l-5,8.61a1,1 0 0 1 -0.34,0.32l-21.93,-38.09l11.18,0a0.85,0.85 0 0 0 0.11,0.43a0.1,0.1 0 0 0 0,0l16,27.7a0.94,0.94 0 0 1 -0.02,1.03z" class="cls-81"/>
  <path id="svg_141" d="m73.78,62l-21.95,38l0,0l-5.51,9.54l-5.32,-9.08a0.85,0.85 0 0 1 -0.11,-0.43a0.93,0.93 0 0 1 0.12,-0.45l5.33,-9.23l16.18,-28a0.94,0.94 0 0 1 0.82,-0.48l9.93,0a1,1 0 0 1 0.51,0.13z" class="cls-82"/>
  <path id="svg_142" d="m73.78,138.09a1,1 0 0 1 -0.47,0.13l-9.93,0a0.94,0.94 0 0 1 -0.82,-0.48l-14.79,-25.62l-1.46,-2.54l5.51,-9.58l21.96,38.09z" class="cls-80"/>
  <path id="svg_143" d="m118,100l-22,38.09a1,1 0 0 1 -0.33,-0.32l0,0l-5,-8.63a1,1 0 0 1 0,-0.89l16,-27.72a0.93,0.93 0 0 0 0.13,-0.48l11.2,0l0,-0.05z" class="cls-82"/>
  <path id="svg_144" d="m128.83,100a0.93,0.93 0 0 1 -0.13,0.48l-21.52,37.26a0.94,0.94 0 0 1 -0.8,0.44l-9.92,0a1,1 0 0 1 -0.48,-0.13l22.02,-38.05l5.51,-9.53l5.23,9.06a0.92,0.92 0 0 1 0.09,0.47z" class="cls-80"/>
  <path id="svg_145" d="m118,100l-11.22,0a0.92,0.92 0 0 0 -0.13,-0.47l-16,-27.69a0.94,0.94 0 0 1 0,-1l5,-8.62a1,1 0 0 1 0.35,-0.22l22,38z" class="cls-80"/>
  <path id="svg_146" d="m123.46,90.48l0,0l-5.46,9.52l-22,-38a1,1 0 0 1 0.48,-0.13l9.92,0a0.94,0.94 0 0 1 0.8,0.44l16.26,28.17z" class="cls-81"/>
 </g>
</svg>